<mxfile host="app.diagrams.net" modified="2024-04-27T11:25:45.281Z" agent="Mozilla/5.0 (Windows NT 10.0; Win64; x64; rv:125.0) Gecko/20100101 Firefox/125.0" etag="-yz8K0nFbHSkJF8Mz_op" version="24.3.1" type="device">
  <diagram name="Page-1" id="qD9-NshoctLQBG8iWgbx">
    <mxGraphModel dx="1050" dy="530" grid="1" gridSize="10" guides="1" tooltips="1" connect="1" arrows="1" fold="1" page="1" pageScale="1" pageWidth="827" pageHeight="1169" math="0" shadow="0">
      <root>
        <mxCell id="0" />
        <mxCell id="1" parent="0" />
        <mxCell id="GqALn78hp8vflBm2i01R-7" style="edgeStyle=orthogonalEdgeStyle;rounded=0;orthogonalLoop=1;jettySize=auto;html=1;exitX=0.5;exitY=1;exitDx=0;exitDy=0;entryX=0.5;entryY=0;entryDx=0;entryDy=0;" edge="1" parent="1" source="GqALn78hp8vflBm2i01R-3" target="GqALn78hp8vflBm2i01R-4">
          <mxGeometry relative="1" as="geometry" />
        </mxCell>
        <mxCell id="GqALn78hp8vflBm2i01R-3" value="Set bits in UCSR1 A, B and C to enable reading and writing, enables read interupt flag and set 8 bit as defined frame" style="rounded=1;whiteSpace=wrap;html=1;" vertex="1" parent="1">
          <mxGeometry x="240" y="70" width="310" height="100" as="geometry" />
        </mxCell>
        <mxCell id="GqALn78hp8vflBm2i01R-10" style="edgeStyle=orthogonalEdgeStyle;rounded=0;orthogonalLoop=1;jettySize=auto;html=1;exitX=0;exitY=0.5;exitDx=0;exitDy=0;entryX=1;entryY=0.5;entryDx=0;entryDy=0;" edge="1" parent="1" source="GqALn78hp8vflBm2i01R-4" target="GqALn78hp8vflBm2i01R-9">
          <mxGeometry relative="1" as="geometry" />
        </mxCell>
        <mxCell id="GqALn78hp8vflBm2i01R-4" value="Enables global interupts" style="rounded=1;whiteSpace=wrap;html=1;" vertex="1" parent="1">
          <mxGeometry x="335" y="210" width="120" height="60" as="geometry" />
        </mxCell>
        <mxCell id="GqALn78hp8vflBm2i01R-13" style="edgeStyle=orthogonalEdgeStyle;rounded=0;orthogonalLoop=1;jettySize=auto;html=1;exitX=1;exitY=0.5;exitDx=0;exitDy=0;entryX=0;entryY=0.5;entryDx=0;entryDy=0;" edge="1" parent="1" source="GqALn78hp8vflBm2i01R-5" target="GqALn78hp8vflBm2i01R-12">
          <mxGeometry relative="1" as="geometry">
            <Array as="points">
              <mxPoint x="500" y="350" />
              <mxPoint x="500" y="240" />
            </Array>
          </mxGeometry>
        </mxCell>
        <mxCell id="GqALn78hp8vflBm2i01R-5" value="Enables power for the PWM output and set timer register TCCR1 A and B and start the timer" style="rounded=1;whiteSpace=wrap;html=1;" vertex="1" parent="1">
          <mxGeometry x="90" y="300" width="220" height="100" as="geometry" />
        </mxCell>
        <mxCell id="GqALn78hp8vflBm2i01R-11" style="edgeStyle=orthogonalEdgeStyle;rounded=0;orthogonalLoop=1;jettySize=auto;html=1;exitX=0.5;exitY=1;exitDx=0;exitDy=0;entryX=0.5;entryY=0;entryDx=0;entryDy=0;" edge="1" parent="1" source="GqALn78hp8vflBm2i01R-9" target="GqALn78hp8vflBm2i01R-5">
          <mxGeometry relative="1" as="geometry" />
        </mxCell>
        <mxCell id="GqALn78hp8vflBm2i01R-9" value="Init PWM" style="rounded=1;whiteSpace=wrap;html=1;" vertex="1" parent="1">
          <mxGeometry x="140" y="210" width="120" height="60" as="geometry" />
        </mxCell>
        <mxCell id="GqALn78hp8vflBm2i01R-15" style="edgeStyle=orthogonalEdgeStyle;rounded=0;orthogonalLoop=1;jettySize=auto;html=1;exitX=0.5;exitY=1;exitDx=0;exitDy=0;entryX=0.5;entryY=0;entryDx=0;entryDy=0;" edge="1" parent="1" source="GqALn78hp8vflBm2i01R-12" target="GqALn78hp8vflBm2i01R-14">
          <mxGeometry relative="1" as="geometry" />
        </mxCell>
        <mxCell id="GqALn78hp8vflBm2i01R-12" value="Init ADC" style="rounded=1;whiteSpace=wrap;html=1;" vertex="1" parent="1">
          <mxGeometry x="570" y="210" width="120" height="60" as="geometry" />
        </mxCell>
        <mxCell id="GqALn78hp8vflBm2i01R-14" value="Sets up the ADC pin to read power usage from motor and enables ADC with 16 division factor " style="rounded=1;whiteSpace=wrap;html=1;" vertex="1" parent="1">
          <mxGeometry x="520" y="300" width="220" height="100" as="geometry" />
        </mxCell>
      </root>
    </mxGraphModel>
  </diagram>
</mxfile>
